<svg width="60" height="60" viewBox="0 0 60 60" fill="none" xmlns="http://www.w3.org/2000/svg">
<ellipse cx="29.5467" cy="29.8714" rx="29.5467" ry="29.8714" fill="#EEEEEE"/>
<path d="M52.4452 16.5292C50.0755 12.3671 46.8612 9.07207 42.8013 6.64319C38.7409 4.21419 34.3081 3 29.4998 3C24.6921 3 20.2578 4.21456 16.1982 6.64319C12.138 9.07194 8.92378 12.3671 6.55407 16.5292C4.18473 20.6911 3 25.2359 3 30.1635C3 36.0827 4.6847 41.4054 8.05496 46.1329C11.4248 50.8608 15.7782 54.1324 21.1148 55.9479C21.736 56.0661 22.1958 55.983 22.4948 55.7006C22.7939 55.4179 22.9433 55.0639 22.9433 54.6399C22.9433 54.5692 22.9374 53.9328 22.9259 52.73C22.9141 51.5272 22.9085 50.4779 22.9085 49.5826L22.1149 49.7233C21.6088 49.8184 20.9705 49.8586 20.1998 49.8472C19.4295 49.8362 18.6298 49.7534 17.8018 49.5996C16.9735 49.4471 16.203 49.0934 15.4899 48.5393C14.7771 47.9851 14.2711 47.2598 13.972 46.3643L13.6269 45.5504C13.3969 45.0086 13.0349 44.4066 12.5402 43.7468C12.0456 43.0864 11.5453 42.6386 11.0393 42.4029L10.7977 42.2256C10.6368 42.1078 10.4874 41.9657 10.3492 41.8008C10.2112 41.6359 10.1079 41.4709 10.0389 41.3057C9.96977 41.1403 10.0271 41.0046 10.2114 40.8982C10.3957 40.7918 10.7287 40.7401 11.212 40.7401L11.9019 40.8458C12.3619 40.9403 12.931 41.2226 13.6099 41.6945C14.2884 42.166 14.8461 42.779 15.2832 43.5332C15.8126 44.5003 16.4503 45.2371 17.1983 45.7442C17.9456 46.2512 18.6992 46.5043 19.4581 46.5043C20.2171 46.5043 20.8726 46.4454 21.4249 46.328C21.9766 46.2101 22.4942 46.0328 22.9775 45.7972C23.1845 44.2167 23.7482 43.0025 24.668 42.1538C23.357 42.0125 22.1783 41.7998 21.1313 41.517C20.085 41.2338 19.0037 40.7742 17.8882 40.1369C16.7721 39.5005 15.8463 38.7103 15.1104 37.7675C14.3744 36.8243 13.7704 35.5859 13.2992 34.0536C12.8277 32.5206 12.5919 30.7523 12.5919 28.7481C12.5919 25.8944 13.5008 23.4661 15.318 21.4616C14.4667 19.3162 14.5471 16.9111 15.5594 14.2466C16.2265 14.0341 17.2158 14.1936 18.5268 14.7239C19.8381 15.2545 20.7982 15.709 21.408 16.0859C22.0178 16.4626 22.5064 16.7819 22.8745 17.0408C25.0143 16.4279 27.2224 16.1215 29.4995 16.1215C31.7766 16.1215 33.9853 16.4279 36.1251 17.0408L37.4362 16.1923C38.3329 15.6262 39.3917 15.1073 40.6101 14.6357C41.8293 14.1643 42.7615 14.0345 43.4059 14.247C44.4407 16.9116 44.5329 19.3166 43.6814 21.462C45.4985 23.4664 46.4077 25.8954 46.4077 28.7485C46.4077 30.7527 46.1711 32.5266 45.7003 34.0713C45.229 35.6163 44.6198 36.8534 43.8724 37.7852C43.1242 38.717 42.1924 39.501 41.077 40.1373C39.9612 40.7741 38.8796 41.2337 37.8332 41.5169C36.7864 41.8001 35.6077 42.0129 34.2967 42.1544C35.4924 43.2151 36.0904 44.8894 36.0904 47.1765V54.6389C36.0904 55.0629 36.2342 55.4168 36.5221 55.6996C36.8096 55.982 37.2637 56.0651 37.8848 55.9468C43.2221 54.1315 47.5755 50.8599 50.9453 46.1319C54.3147 41.4044 56 36.0817 56 30.1625C55.9988 25.2355 54.8135 20.6911 52.4452 16.5292Z" fill="black"/>
</svg>
