<svg width="80" height="80" viewBox="0 0 80 80" fill="none" xmlns="http://www.w3.org/2000/svg">
<g clip-path="url(#clip0)">
<path fill-rule="evenodd" clip-rule="evenodd" d="M22.367 45.0633L16.8129 49.5011L16.5162 49.74C14.9262 51.0055 14.6693 53.3416 15.936 54.9256C17.2028 56.5097 19.5368 56.7662 21.1224 55.5053L21.1268 55.5009L26.9776 50.8242L26.9865 50.8198H26.9909C28.5676 49.55 28.8245 47.2226 27.5578 45.6431C26.2868 44.0545 23.9526 43.7978 22.367 45.0633V45.0633Z" fill="#FFD0C7"/>
<path fill-rule="evenodd" clip-rule="evenodd" d="M26.9778 50.8241L21.127 55.5008L21.1226 55.5052C19.5414 56.7707 19.2801 59.1024 20.5512 60.6864C21.8179 62.2705 24.152 62.5314 25.7422 61.2616L31.5929 56.5892L34.1662 54.5317C35.7562 53.2619 36.0131 50.9302 34.7464 49.3461C33.4797 47.7621 31.1411 47.5011 29.5554 48.7664L26.9911 50.8194C26.9867 50.8197 26.9822 50.8241 26.9778 50.8241V50.8241Z" fill="#FFD0C7"/>
<path fill-rule="evenodd" clip-rule="evenodd" d="M31.5929 56.5895L25.7421 61.2618C24.1521 62.5316 23.8953 64.8634 25.162 66.4474C26.4287 68.0359 28.7673 68.2924 30.3529 67.0271L33.6304 64.4077L36.2037 62.3502C37.7937 61.0848 38.0506 58.7487 36.7839 57.1646C35.5126 55.5805 33.1786 55.3196 31.5929 56.5895Z" fill="#FFD0C7"/>
<path fill-rule="evenodd" clip-rule="evenodd" d="M33.6303 64.4076L30.3528 67.027C28.7671 68.2924 28.5059 70.6285 29.777 72.2126C31.0437 73.7967 33.3778 74.0576 34.9679 72.7878L38.2411 70.1684C38.8523 69.686 39.2642 69.0401 39.4723 68.3454C39.8045 67.2215 39.6007 65.9606 38.8212 64.9871C37.55 63.3988 35.2159 63.1423 33.6303 64.4076Z" fill="#FFD0C7"/>
<path fill-rule="evenodd" clip-rule="evenodd" d="M21.3086 27.1969L11.1968 45.081C13.6682 45.7889 15.8207 47.3685 16.8129 49.5011L22.367 45.0633C23.9526 43.7978 26.2867 44.0546 27.5579 45.643C28.8247 47.2225 28.5678 49.5499 26.9911 50.8197L29.5554 48.7667C31.1411 47.5013 33.4797 47.7624 34.7464 49.3464C36.0131 50.9305 35.7562 53.2622 34.1662 54.5321L31.5929 56.5896C33.1786 55.3197 35.5126 55.5808 36.7839 57.1647C38.0506 58.7488 37.7937 61.0849 36.2037 62.3503L33.6304 64.4078C35.2161 63.1424 37.5501 63.3991 38.8214 64.9875C39.6009 65.961 39.8046 67.2219 39.4725 68.3458L42.7678 70.9785C44.3534 72.2439 46.6875 71.9872 47.9587 70.3988C49.2254 68.8147 48.9642 66.483 47.3786 65.2132L49.6462 67.0272C51.2318 68.2927 53.5704 68.036 54.8372 66.4475C56.1082 64.8635 55.847 62.5317 54.2614 61.2619C55.847 62.5317 58.1811 62.2706 59.4523 60.6867C60.719 59.1027 60.4578 56.771 58.8722 55.5011C60.4578 56.771 62.7964 56.5099 64.0631 54.926C65.3342 53.3419 65.0729 51.0058 63.4873 49.7403L63.1906 49.5014L58.4161 45.6874C55.9536 43.7228 53.172 41.546 50.5323 39.6522C45.7578 36.2321 43.4059 33.9578 37.4222 35.1613C32.9 36.0727 29.2417 34.6922 28.2893 30.7766C28.1476 30.1881 28.1565 29.6705 28.3026 29.2236L21.3086 27.1969Z" fill="#FFDCD5"/>
<path fill-rule="evenodd" clip-rule="evenodd" d="M40.8453 26.104L34.0687 26.7101C30.8134 26.9977 28.7937 27.7543 28.302 29.2232C28.1559 29.6701 28.147 30.1877 28.2887 30.7761C29.2409 34.6919 32.8994 36.0724 37.4215 35.1608C43.4053 33.9574 45.7572 36.2316 50.5317 39.6518C53.1714 41.5455 55.953 43.7224 58.4155 45.6869L63.19 49.501C64.1776 47.3683 66.3303 45.7888 68.8017 45.0808L58.6989 27.2188L54.5001 28.4355C51.6256 29.2674 51.9976 29.0107 49.2339 28.0461L45.1458 26.6171C42.9801 25.8607 42.1828 25.9846 40.8453 26.104Z" fill="#FFD0C7"/>
<path fill-rule="evenodd" clip-rule="evenodd" d="M57.8264 25.6703L58.6989 27.2189L68.8017 45.0809L69.8912 47.01C70.5201 48.1206 71.9464 48.51 73.0668 47.8905L77.2523 45.572C77.4915 45.4392 77.6996 45.2711 77.8679 45.072C78.4968 44.3508 78.6298 43.2756 78.1381 42.3995L77.8679 41.9305L66.0689 21.0641C65.4399 19.9491 64.0182 19.5641 62.8976 20.1836L58.7076 22.502C57.5873 23.1217 57.1931 24.5553 57.8264 25.6703V25.6703Z" fill="#A0C8FF"/>
<path fill-rule="evenodd" clip-rule="evenodd" d="M13.9297 21.0644L1.86481 42.3997C1.23137 43.5147 1.62559 44.9527 2.74622 45.5722L6.93169 47.8906C8.05231 48.51 9.4784 48.1208 10.1073 47.0102L11.1968 45.0811L21.3084 27.1969L22.1722 25.6705C22.8056 24.5555 22.4114 23.1219 21.2908 22.5025L17.1053 20.1841C15.9847 19.5644 14.5586 19.9494 13.9297 21.0644V21.0644Z" fill="#FF9EB1"/>
<path d="M39.9992 15.9291C40.862 15.9291 41.5617 15.2294 41.5617 14.3666V6.40723C41.5617 5.54441 40.8622 4.84473 39.9992 4.84473C39.1362 4.84473 38.4367 5.54426 38.4367 6.40723V14.3666C38.4369 15.2294 39.1364 15.9291 39.9992 15.9291Z" fill="black"/>
<path d="M28.2519 18.4958C28.5489 18.9672 29.0562 19.2254 29.5751 19.2254C29.8598 19.2254 30.1481 19.1475 30.4067 18.9846C31.1367 18.5246 31.3555 17.5597 30.8955 16.8296L26.7323 10.2241C26.2722 9.4941 25.3073 9.2752 24.5775 9.73535C23.8475 10.1954 23.6287 11.1602 24.0887 11.8904L28.2519 18.4958Z" fill="black"/>
<path d="M49.5968 18.985C49.8554 19.1477 50.1434 19.2254 50.4278 19.2254C50.9468 19.2254 51.4545 18.9669 51.7515 18.4952L55.9103 11.8897C56.37 11.1594 56.1507 10.1949 55.4204 9.73488C54.6898 9.27535 53.7256 9.49473 53.2657 10.2247L49.107 16.8302C48.6473 17.5607 48.8667 18.5252 49.5968 18.985V18.985Z" fill="black"/>
<path d="M79.4962 41.63L76.7814 36.8339C76.3561 36.0827 75.4026 35.8186 74.6522 36.2439C73.9011 36.6691 73.637 37.6223 74.0622 38.3731L76.7758 43.1672C76.9117 43.4081 76.8764 43.6405 76.8433 43.7575C76.8114 43.8702 76.7236 44.0781 76.4939 44.205L72.3098 46.5227C71.9381 46.728 71.453 46.5983 71.2503 46.2408L70.1873 44.3605C70.183 44.352 70.178 44.3442 70.1734 44.3359L59.1844 24.8994C59.0486 24.6602 59.083 24.4308 59.1155 24.3153C59.1469 24.2036 59.234 23.9972 59.4637 23.8702L63.6528 21.552C64.0292 21.3436 64.5025 21.4702 64.7083 21.8348L67.1573 26.1619C67.5825 26.913 68.5361 27.1769 69.2867 26.752C70.0378 26.327 70.3019 25.3736 69.8769 24.6227L67.4289 20.2975C66.3848 18.4466 64.0126 17.7827 62.1405 18.8175L57.9515 21.1356C57.0451 21.6366 56.3903 22.4645 56.1078 23.4675C55.8412 24.4131 55.9365 25.4003 56.373 26.2667L54.0655 26.9355C53.0825 27.2198 52.4859 27.3741 52.1548 27.3741C52.1534 27.3741 52.1522 27.3741 52.1509 27.3741C51.923 27.3733 51.6744 27.2863 50.9648 27.0175C50.643 26.8956 50.2422 26.7438 49.7495 26.5719L45.6612 25.1427C43.4001 24.353 42.3803 24.3955 40.9028 24.5303L33.9315 25.1542C30.7536 25.4358 28.7275 26.1527 27.609 27.3959L23.6362 26.2448C24.0637 25.3822 24.1555 24.4045 23.8914 23.4675C23.6089 22.4652 22.9545 21.6373 22.049 21.1364L17.8625 18.8172C15.9887 17.7814 13.6151 18.4456 12.5709 20.2961L0.507795 41.6278C-0.00861107 42.537 -0.136424 43.5945 0.148264 44.6056C0.431076 45.6097 1.08576 46.4384 1.99045 46.9388L6.17701 49.2577C6.77561 49.5886 7.42592 49.7458 8.06764 49.7458C9.43092 49.7458 10.7562 49.0366 11.4686 47.7789L11.9109 46.9964C13.1181 47.5278 14.1317 48.2998 14.8225 49.2139C14.1478 50.0023 13.7228 50.9753 13.6036 52.0336C13.4461 53.4331 13.8414 54.8063 14.7167 55.9008C15.5845 56.9859 16.8255 57.6706 18.2131 57.8319C18.0662 59.2195 18.4631 60.5792 19.3317 61.6616C20.2295 62.7841 21.4984 63.4389 22.8258 63.5934C22.6795 64.9791 23.075 66.3375 23.9409 67.4205C24.8083 68.508 26.0495 69.1941 27.4386 69.3553C27.2915 70.7441 27.6884 72.1045 28.557 73.187C29.5923 74.4814 31.1208 75.1553 32.6637 75.1552C33.8156 75.1552 34.9756 74.7795 35.944 74.0061L39.2156 71.3883C39.4755 71.1809 39.7115 70.9517 39.9239 70.7048L41.7926 72.1977C42.759 72.9689 43.9164 73.3436 45.0667 73.3434C46.6105 73.3433 48.1414 72.6686 49.1781 71.373C49.7245 70.6898 50.0705 69.9102 50.2267 69.1053C50.7731 69.2944 51.35 69.392 51.9381 69.3919C52.1353 69.3919 52.3337 69.3809 52.5328 69.3589C53.9328 69.2034 55.1847 68.515 56.0545 67.4241C56.9247 66.34 57.3215 64.9805 57.1748 63.593C58.5012 63.4381 59.7708 62.7834 60.6712 61.6614C61.5681 60.54 61.9281 59.1594 61.7872 57.8316C63.174 57.67 64.4144 56.9855 65.2801 55.9028C66.1561 54.8113 66.5531 53.4402 66.398 52.0417C66.2801 50.9802 65.8548 50.0039 65.1789 49.2133C65.8676 48.2995 66.8792 47.5266 68.0872 46.9955L68.5305 47.7795C69.2423 49.0367 70.567 49.7456 71.9306 49.7456C72.5726 49.7455 73.2236 49.5883 73.8228 49.257L78.007 46.9392C78.9114 46.4392 79.5658 45.6117 79.8497 44.6094C80.1359 43.5992 80.0108 42.5417 79.4962 41.63V41.63ZM8.74889 46.24C8.54576 46.5988 8.0603 46.7281 7.69014 46.5233L3.50373 44.2045C3.27514 44.078 3.18795 43.8708 3.15608 43.7584C3.12342 43.642 3.08858 43.4109 3.22639 43.1688L15.2914 21.8328C15.4295 21.588 15.6898 21.4508 15.9601 21.4508C16.0917 21.4508 16.2255 21.4831 16.3489 21.5514L20.5342 23.8698C20.5347 23.8702 20.5351 23.8705 20.5356 23.8706C20.7647 23.9973 20.8517 24.2038 20.8833 24.3155C20.9158 24.4309 20.9501 24.6603 20.8128 24.9022L8.74889 46.24ZM20.1511 54.2806C19.7105 54.6336 19.154 54.7931 18.5855 54.7298C18.0165 54.6667 17.5095 54.3895 17.1573 53.9492C16.8044 53.5078 16.6453 52.9516 16.7092 52.3831C16.7728 51.817 17.0501 51.3125 17.493 50.9602L23.3426 46.2842C24.2608 45.5513 25.6047 45.702 26.3384 46.6184C26.6912 47.0595 26.8505 47.6148 26.7867 48.1816C26.7233 48.7464 26.4458 49.2505 26.0055 49.6008C25.9958 49.6084 25.9875 49.617 25.9781 49.625L20.1525 54.2795C20.152 54.2798 20.1515 54.2803 20.1511 54.2806V54.2806ZM21.7705 59.7078C21.4178 59.2683 21.2584 58.7144 21.3214 58.1481C21.3844 57.5814 21.662 57.0745 22.103 56.7209L22.1034 56.7206C22.1037 56.7205 22.104 56.7202 22.1044 56.72C22.1045 56.72 22.1045 56.7199 22.1047 56.7197L30.5306 49.9878C31.4486 49.2547 32.7928 49.4044 33.5264 50.322C33.8787 50.7625 34.038 51.3172 33.975 51.8838C33.9119 52.4509 33.6334 52.9578 33.1914 53.3109L24.7676 60.0403C23.8486 60.7738 22.5048 60.6258 21.7705 59.7078V59.7078ZM27.8108 66.2531C27.242 66.19 26.7355 65.9125 26.3828 65.4703C26.0305 65.0299 25.8712 64.4752 25.9342 63.9086C25.9973 63.3419 26.2753 62.8355 26.7167 62.4823C26.717 62.482 26.7175 62.4817 26.7178 62.4814L32.5487 57.8233C32.5556 57.818 32.5631 57.8134 32.57 57.808C33.4856 57.075 34.8294 57.2242 35.5637 58.1395C35.9167 58.5808 36.0759 59.137 36.012 59.7055C35.9483 60.2716 35.6709 60.7761 35.2283 61.1284L29.3787 65.8042C28.9367 66.1572 28.3797 66.3159 27.8108 66.2531V66.2531ZM38.048 67.5216C37.9847 68.0883 37.707 68.5941 37.2648 68.9472L33.9931 71.5655C33.0739 72.2991 31.7301 72.1514 30.9961 71.2333C30.6434 70.7941 30.4839 70.2397 30.5469 69.6724C30.6098 69.105 30.8872 68.5989 31.3273 68.2473C31.3278 68.247 31.3284 68.2466 31.3289 68.2463L34.5998 65.6316C34.6015 65.6302 34.6034 65.6291 34.6051 65.6278C35.5234 64.895 36.8673 65.0452 37.6011 65.962C37.9525 66.4017 38.1114 66.9553 38.048 67.5216V67.5216ZM62.8414 53.9491C62.4892 54.3894 61.982 54.6667 61.4133 54.7298C60.845 54.7938 60.2883 54.6338 59.8476 54.2806C59.8475 54.2805 59.8472 54.2803 59.8469 54.2802C59.8467 54.28 59.8464 54.2799 59.8462 54.2797L55.6653 50.9392C54.9909 50.4005 54.0078 50.5105 53.4694 51.1845C52.9308 51.8586 53.0406 52.8419 53.7147 53.3805L57.8942 56.7198C58.8111 57.4541 58.9622 58.7953 58.2325 59.7077C57.4962 60.6252 56.1523 60.7744 55.2348 60.0395L50.6997 56.4205C50.0253 55.8823 49.0422 55.9928 48.5039 56.6672C47.9658 57.3416 48.0761 58.3247 48.7506 58.863L53.2836 62.4803C53.7253 62.8341 54.0033 63.3413 54.0664 63.9086C54.1294 64.4749 53.97 65.0289 53.6144 65.4719C53.263 65.9125 52.7564 66.1898 52.1878 66.2531C51.6186 66.3158 51.0615 66.1569 50.6212 65.8055L48.3647 64.0008C48.3608 63.9977 48.3573 63.9944 48.3534 63.9913L46.4469 62.467L46.0905 62.182C45.4162 61.643 44.4331 61.7525 43.8944 62.4263C43.827 62.5106 43.7697 62.5997 43.7225 62.6922C43.4962 63.1344 43.5 63.653 43.7123 64.0878C43.8106 64.2892 43.9522 64.4731 44.1387 64.6223L46.4076 66.4369C47.3184 67.1724 47.4673 68.5091 46.7381 69.4208C46.0042 70.3381 44.6601 70.488 43.7425 69.7559L41.1683 67.6994C41.2755 66.362 40.8792 65.0578 40.0411 64.0098C39.5201 63.3588 38.874 62.8656 38.1645 62.5348C38.6845 61.8134 39.0147 60.9659 39.1172 60.0547C39.2747 58.6553 38.8794 57.2822 38.0025 56.1858C37.4814 55.5364 36.8361 55.0444 36.128 54.7144C36.6489 53.9908 36.979 53.1416 37.0806 52.2291C37.2361 50.8328 36.8405 49.4624 35.9667 48.3697C34.4633 46.49 31.9208 45.9186 29.8047 46.8167C29.6353 46.0389 29.2892 45.3052 28.7783 44.6663C26.9692 42.4056 23.6564 42.0358 21.3922 43.8423L17.2084 47.1866C16.2623 45.9792 14.9762 44.978 13.4556 44.2639L22.0617 29.0419L26.6439 30.3695C26.6648 30.6147 26.7045 30.8725 26.7709 31.1456C27.8801 35.7063 32.0792 37.8313 37.7297 36.6927C42.4906 35.7347 44.4506 37.1617 48.3542 40.0044C48.7592 40.2992 49.18 40.6056 49.6205 40.9211C52.4278 42.9352 55.4278 45.3025 57.4392 46.907L62.5111 50.9605C62.9517 51.312 63.229 51.8183 63.292 52.3861C63.355 52.9534 63.1956 53.5078 62.8414 53.9491V53.9491ZM62.7928 47.1856L59.3892 44.4655C57.35 42.8388 54.3076 40.4383 51.4412 38.3817C51.0069 38.0706 50.5926 37.7689 50.1939 37.4786C46.1461 34.5309 43.2206 32.4013 37.1131 33.6295C35.2437 34.0063 30.79 34.4467 29.8076 30.408C29.6692 29.8378 29.8098 29.6419 29.8697 29.5583C30.0786 29.267 30.9192 28.5581 34.2081 28.2669L41.1867 27.6423C42.3239 27.5386 42.8944 27.4864 44.63 28.0927L48.7187 29.522C49.1733 29.6808 49.5367 29.8183 49.8575 29.9398C51.8262 30.6856 52.348 30.6855 54.9344 29.9369L57.9487 29.0634L66.5433 44.2649C65.0222 44.9784 63.7373 45.9789 62.7928 47.1856Z" fill="black"/>
<path d="M71.964 33.0623C72.8268 33.0623 73.5265 32.3604 73.5265 31.4974C73.5265 30.6345 72.8268 29.9349 71.964 29.9349C71.1012 29.9349 70.4015 30.6346 70.4015 31.4974V31.5018C70.4015 32.3648 71.1012 33.0623 71.964 33.0623Z" fill="black"/>
</g>
<defs>
<clipPath id="clip0">
<rect width="80" height="80" fill="white"/>
</clipPath>
</defs>
</svg>
