<svg width="81" height="81" viewBox="0 0 81 81" fill="none" xmlns="http://www.w3.org/2000/svg">
<g clip-path="url(#clip0)">
<path d="M49.3179 61.3547C50.3209 58.0112 52.3271 55.002 55.002 52.6614C60.0174 48.4819 63.1938 42.1291 63.1938 35.1076C63.1938 22.0677 52.3272 11.3682 38.9528 12.0369C27.083 12.5385 17.3866 22.5692 17.0523 34.4388C16.8851 41.7948 20.0615 48.3148 25.2441 52.6614C28.0861 55.0018 30.0923 58.011 31.0953 61.3547H49.3179Z" fill="#FFD15C"/>
<path d="M37.9495 61.689H39.4541L32.7669 36.7794C32.9341 36.7794 33.1012 36.7794 33.2684 36.7794C34.1043 36.7794 34.9403 36.4451 35.6089 35.7763C35.9432 35.442 36.2777 35.2748 36.7792 35.2748C37.2807 35.2748 37.615 35.442 37.9495 35.7763C39.1198 37.1137 41.1259 37.1137 42.2961 35.7763C42.6304 35.442 42.9649 35.2748 43.4664 35.2748C43.8007 35.2748 44.3022 35.442 44.6367 35.7763C45.3055 36.4451 45.9741 36.7794 46.9771 36.7794C47.1444 36.7794 47.3115 36.7794 47.4787 36.7794L40.9587 61.689H42.4633L49.3176 35.6091C49.3176 35.2748 49.3176 34.9403 48.9833 34.7732C48.649 34.606 48.3145 34.7732 48.1475 34.9405C47.8131 35.2748 47.4787 35.442 47.1444 35.442C46.6428 35.442 46.3085 35.2748 45.807 34.9405C45.1382 34.2717 44.4696 33.9374 43.6336 33.9374C42.7976 33.9374 42.129 34.2717 41.4602 34.9405C40.7915 35.6092 39.7884 35.6092 39.1198 34.9405C38.6183 34.2717 37.7824 33.9374 36.9464 33.9374C36.1106 33.9374 35.2746 34.2717 34.773 34.9405C34.4387 35.2748 33.9372 35.442 33.4357 35.442C33.1014 35.442 32.5998 35.2748 32.4326 34.9405C32.2654 34.7732 31.9311 34.6061 31.5968 34.7732C31.2624 34.9405 31.0952 35.2748 31.2624 35.6091L37.9495 61.689Z" fill="white"/>
<path d="M34.9403 76.7349C35.7763 78.741 37.7825 80.2456 40.1229 80.2456C42.4634 80.2456 44.4695 78.741 45.3055 76.7349H34.9403Z" fill="#344A5E"/>
<path d="M46.3086 76.9021H34.1045C32.4326 76.9021 31.0952 75.5647 31.0952 73.8929V61.1873H49.3178V73.8929C49.3178 75.5646 47.9802 76.9021 46.3086 76.9021Z" fill="#344A5E"/>
<path d="M49.1512 67.5401H31.0959C30.0928 67.5401 29.257 66.7043 29.257 65.7012C29.257 64.6981 30.0928 63.8623 31.0959 63.8623H49.1512C50.1543 63.8623 50.9901 64.6981 50.9901 65.7012C50.9901 66.7043 50.1543 67.5401 49.1512 67.5401Z" fill="#415A6B"/>
<path d="M49.1507 73.3915H31.0954C30.0923 73.3915 29.2564 72.5556 29.2564 71.5525C29.2564 70.5495 30.0923 69.7136 31.0954 69.7136H49.1507C50.1537 69.7136 50.9896 70.5495 50.9896 71.5525C50.9896 72.5555 50.1537 73.3915 49.1507 73.3915Z" fill="#415A6B"/>
<path d="M40.1228 0C39.287 0 38.451 0.668767 38.451 1.67184V7.35597C38.451 8.19181 39.1198 9.02781 40.1228 9.02781C41.1259 9.02781 41.7947 8.35904 41.7947 7.35597V1.67184C41.7947 0.668767 40.9587 0 40.1228 0Z" fill="#FFD15C"/>
<path d="M17.7209 10.198C17.0521 9.52922 16.0491 9.52922 15.3805 10.198C14.7118 10.8668 14.7117 11.8698 15.3805 12.5384L19.3927 16.5507C20.0615 17.2195 21.0646 17.2195 21.7332 16.5507C22.4018 15.882 22.402 14.8789 21.7332 14.2103L17.7209 10.198Z" fill="#FFD15C"/>
<path d="M12.5384 33.2687H6.8543C6.01846 33.2687 5.18246 33.9374 5.18246 34.9405C5.18246 35.7764 5.85123 36.6124 6.8543 36.6124H12.5384C13.3743 36.6124 14.2103 35.9436 14.2103 34.9405C14.2103 34.1045 13.3743 33.2687 12.5384 33.2687Z" fill="#FFD15C"/>
<path d="M19.3928 53.3299L15.3805 57.3422C14.7117 58.0109 14.7117 59.014 15.3805 59.6826C16.0493 60.3512 17.0524 60.3514 17.721 59.6826L21.7333 55.6703C22.402 55.0016 22.402 53.9985 21.7333 53.3299C21.0645 52.6613 20.0616 52.6611 19.3928 53.3299Z" fill="#FFD15C"/>
<path d="M60.8531 53.3299C60.1843 52.6612 59.1813 52.6612 58.5125 53.3299C57.8437 53.9987 57.8437 55.0018 58.5125 55.6704L62.5248 59.6827C63.1936 60.3514 64.1966 60.3514 64.8652 59.6827C65.5338 59.0139 65.534 58.0108 64.8652 57.3422L60.8531 53.3299Z" fill="#FFD15C"/>
<path d="M73.3915 33.2687H67.7073C66.8715 33.2687 66.0355 33.9374 66.0355 34.9405C66.0355 35.7764 66.7043 36.6124 67.7073 36.6124H73.3915C74.2273 36.6124 75.0633 35.9436 75.0633 34.9405C75.0631 34.1045 74.3945 33.2687 73.3915 33.2687Z" fill="#FFD15C"/>
<path d="M62.5248 10.1979L58.5125 14.2102C57.8437 14.879 57.8437 15.8821 58.5125 16.5507C59.1813 17.2194 60.1843 17.2194 60.8529 16.5507L64.8652 12.5384C65.534 11.8696 65.534 10.8665 64.8652 10.1979C64.1965 9.52932 63.1936 9.52916 62.5248 10.1979Z" fill="#FFD15C"/>
</g>
<defs>
<clipPath id="clip0">
<rect width="80.2458" height="80.2458" fill="white"/>
</clipPath>
</defs>
</svg>
