<svg width="58" height="59" viewBox="0 0 58 59" fill="none" xmlns="http://www.w3.org/2000/svg">
<ellipse cx="28.875" cy="29.1923" rx="28.875" ry="29.1923" fill="#EEEEEE"/>
<g clip-path="url(#clip0)">
<path d="M28.5577 5.07692C41.877 5.07692 52.6732 15.8746 52.6732 29.1924C52.6732 42.5102 41.877 53.3077 28.5577 53.3077C15.2384 53.3077 4.44238 42.51 4.44238 29.1924C4.44238 15.8747 15.2386 5.07692 28.5577 5.07692Z" fill="#0E76A8"/>
<path d="M18.0313 38.2114H22.5469V23.1604H18.0313V38.2114ZM35.6235 22.639C33.432 22.639 31.4711 23.4394 30.08 25.2059V23.1109H25.5478V38.2116H30.08V30.0455C30.08 28.3197 31.6611 26.6362 33.6416 26.6362C35.622 26.6362 36.1104 28.3197 36.1104 30.0033V38.2101H40.6261V29.6672C40.6259 23.7332 37.8165 22.639 35.6235 22.639ZM20.268 21.6563C21.516 21.6563 22.5289 20.6434 22.5289 19.3954C22.5289 18.1474 21.516 17.1347 20.268 17.1347C19.02 17.1347 18.0071 18.1476 18.0071 19.3956C18.0071 20.6435 19.02 21.6563 20.268 21.6563Z" fill="white"/>
</g>
<defs>
<clipPath id="clip0">
<rect x="4.44238" y="5.07692" width="48.2308" height="48.2308" fill="white"/>
</clipPath>
</defs>
</svg>
