<svg width="67" height="67" viewBox="0 0 67 67" fill="none" xmlns="http://www.w3.org/2000/svg">
<g clip-path="url(#clip0)">
<path d="M3.92824 18.3669C3.92824 18.3669 2.5307 22.4889 2.7321 27.7484C2.83024 30.3149 5.98007 31.4809 7.74258 29.6121C11.5784 25.5437 17.9706 20.6416 25.3524 22.537C24.8647 22.0493 20.4768 10.0236 20.4768 10.0236C20.4768 10.0236 8.66831 7.85875 3.92824 18.3669Z" fill="#B86EFF"/>
<path d="M25.3524 22.537C24.8652 22.0493 20.4773 10.0236 20.4773 10.0236C20.4773 10.0236 8.6683 7.85875 3.92823 18.3669C3.92823 18.3669 3.75546 18.876 3.54128 19.7618C6.59142 20.0343 10.0796 21.5213 10.8806 26.6795C14.6648 23.6012 19.7203 21.0909 25.3524 22.537Z" fill="#9F4DFF"/>
<path d="M5.01456 54.3721C5.01456 54.3721 19.1648 46.4152 17.8357 32.059C16.5062 17.7028 11.4865 6.4034 3.92833 18.3668C3.92833 18.3668 8.22011 0.816834 31.1972 3.479C55.4179 6.28532 57.685 51.3332 57.685 51.3332L5.01456 54.3721Z" fill="#CF92FF"/>
<path d="M17.3553 28.052C17.5485 29.3483 17.709 30.6896 17.8358 32.0591C19.1648 46.4153 5.01461 54.3721 5.01461 54.3721L22.5902 53.358C25.3546 38.2626 17.3696 28.0704 17.3553 28.052Z" fill="#B86EFF"/>
<path d="M5.01461 54.3721L57.6855 51.3332C57.6855 51.3332 57.3129 43.9345 55.258 34.9476C49.4526 36.2337 42.2262 37.9001 35.5764 39.6161C26.6095 41.9302 20.3788 40.9564 17.0026 39.9244C14.05 49.291 5.01461 54.3721 5.01461 54.3721Z" fill="#FFEB99"/>
<path d="M22.63 40.9451C20.274 40.7657 18.395 40.3501 17.0026 39.9243C14.05 49.291 5.01461 54.372 5.01461 54.372L22.5901 53.3578C23.4428 48.7021 23.2731 44.5136 22.63 40.9451Z" fill="#FFDE55"/>
<path d="M33.344 50.5337L31.0243 40.4969C30.7263 39.2077 31.5299 37.9206 32.8196 37.6226L44.5013 34.9231C45.79 34.6246 47.0771 35.4286 47.3756 36.7183L49.6948 46.7546C49.9928 48.0438 49.1893 49.3309 47.8996 49.6289L36.2178 52.3284C34.2146 52.8002 33.4872 51.1527 33.344 50.5337ZM36.2332 41.7528L37.4738 47.1196L44.486 45.4987L43.2454 40.1319L36.2332 41.7528Z" fill="#898890"/>
<path d="M2.16477 52.0427C3.28678 50.7965 4.99716 50.2592 6.62932 50.6436C11.1297 51.7048 20.9784 53.4474 31.97 51.7258C40.1319 50.4473 47.9983 47.6446 53.8246 45.1618C58.8708 43.0114 65.0933 46.5262 65.8125 51.3766C66.5317 56.2266 63.6871 60.9744 58.8018 61.8454C53.3155 62.8238 44.7876 63.7224 31.97 63.7224C16.6794 63.7224 8.19043 61.3966 3.62773 59.2747C0.83266 57.9748 0.103221 54.3338 2.16477 52.0427Z" fill="#DFAEFF"/>
<path d="M17.8975 58.531C17.9522 54.2412 21.8417 52.7052 22.5814 52.4516C15.5957 52.4716 9.79193 51.3894 6.62932 50.6436C4.99767 50.2592 3.28678 50.7964 2.16477 52.0427C0.103221 54.3337 0.83266 57.9748 3.62773 59.2747C7.10829 60.8936 12.8738 62.6305 22.199 63.3635C21.4635 63.2905 17.8434 62.7195 17.8975 58.531Z" fill="#CF92FF"/>
<path d="M65.4317 55.9592C62.3565 52.8488 56.2342 52.1158 50.4877 55.8923C40.1983 62.654 26.5716 63.6186 26.5716 63.6186C28.2697 63.6856 30.0669 63.7219 31.97 63.7219C44.7876 63.7219 53.3154 62.8232 58.8018 61.8448C62.0938 61.2575 64.4589 58.9123 65.4317 55.9592Z" fill="#CF92FF"/>
<path d="M47.1155 26.7249C47.6471 26.6206 47.9942 26.1049 47.8899 25.5727L47.5766 23.9743C47.4728 23.4422 46.9571 23.0956 46.4249 23.1994C45.8933 23.3037 45.5462 23.8194 45.6505 24.3516L45.9639 25.95C46.0676 26.4821 46.5834 26.8287 47.1155 26.7249Z" fill="black"/>
<path d="M25.7108 27.256C25.1787 27.3603 24.8321 27.8761 24.9359 28.4082L25.2493 30.0066C25.3535 30.5388 25.8688 30.8853 26.4009 30.7816C26.9325 30.6773 27.2796 30.1615 27.1753 29.6299L26.862 28.031C26.7582 27.4988 26.2425 27.1523 25.7108 27.256Z" fill="black"/>
<path d="M34.068 27.4901C33.5839 27.2463 32.994 27.441 32.7502 27.9251C32.5063 28.4092 32.7011 28.9996 33.1857 29.2429C34.3839 29.8461 35.7093 30.0056 36.9556 29.7612C38.2023 29.5174 39.3698 28.8698 40.2521 27.8592C40.6084 27.4513 40.5665 26.8312 40.158 26.4744C39.7496 26.1181 39.1296 26.1601 38.7733 26.5685C37.5986 27.9144 35.6638 28.2932 34.068 27.4901Z" fill="black"/>
<path d="M66.771 51.1665C66.771 51.1665 65.5447 44.093 57.8367 43.4954C56.3472 33.1601 52.3202 15.2932 41.8254 6.94221C41.4016 6.60484 40.7841 6.67538 40.4468 7.09914C40.1094 7.52341 40.1794 8.1409 40.6037 8.47827C45.0483 12.0151 48.7323 17.7933 51.554 25.652C52.585 28.5243 53.4121 31.4385 54.074 34.2054C51.9895 34.6701 49.9468 35.1337 47.9788 35.5892C47.7054 35.1061 46.7704 33.4642 44.2805 33.9667L32.5988 36.6667C30.1508 37.1426 30.0266 39.1745 29.9887 39.7189C24.7554 40.4172 20.825 39.9152 18.2165 39.2461C18.8396 36.8799 19.0426 34.4467 18.813 31.9686C18.3463 26.9325 17.4615 22.5068 16.2541 19.1704C14.83 15.237 13.0174 12.9812 10.8654 12.4644C9.8231 12.2144 8.7655 12.3775 7.69562 12.951C8.26148 12.1587 8.93009 11.3418 9.71576 10.5419C11.9015 8.31623 14.5637 6.64982 17.6282 5.58761C21.4916 4.24886 26.0185 3.86752 31.0842 4.45435C33.2725 4.70789 35.3673 5.34225 37.3097 6.34005C37.7923 6.58797 38.3837 6.39781 38.6311 5.91578C38.879 5.43324 38.6888 4.84181 38.2063 4.59441C36.0538 3.48824 33.7331 2.78538 31.3101 2.50475C25.9203 1.8801 21.0785 2.3013 16.9186 3.75609C13.5592 4.93127 10.6415 6.77761 8.24257 9.24094C2.17806 15.4685 1.55392 22.6111 1.75174 27.7862C1.81206 29.3708 2.77306 30.7019 4.25903 31.2596C4.71857 31.4318 6.90944 31.945 8.45675 30.2858C10.8178 27.7529 13.2796 25.8821 15.7481 24.6706C16.226 26.9029 16.6058 29.4209 16.8583 32.15C17.6215 40.3896 13.0665 46.4571 9.0037 50.1534C8.18225 49.9914 7.46048 49.8324 6.85474 49.6893C4.87447 49.2226 2.7981 49.8728 1.43533 51.3869C0.238678 52.7159 -0.242332 54.484 0.115486 56.2373C0.471772 57.9835 1.60094 59.4143 3.21368 60.1647C7.66597 62.2354 16.2695 64.7038 31.97 64.7038C42.8472 64.7038 51.9327 64.0674 58.9741 62.8115C61.6056 62.3422 63.8721 60.8619 65.3566 58.6419C66.8384 56.426 67.3409 53.7715 66.771 51.1665ZM7.02854 28.9383C6.37987 29.6264 5.52877 29.6386 4.94859 29.4209C4.20535 29.1423 3.74326 28.5028 3.7131 27.7105C3.5393 23.1667 4.61582 19.4572 4.82387 18.7891C7.45179 14.668 9.30938 14.1093 10.4074 14.3726C12.2936 14.8255 14.0367 17.9293 15.2865 22.7179C12.4669 24.0255 9.69225 26.1131 7.02854 28.9383ZM55.8657 43.5798C54.69 43.6365 51.4977 45.0719 50.412 45.4982L48.5565 37.4698C50.481 37.025 52.4766 36.5721 54.5116 36.1187C55.1143 38.8765 55.5518 41.4318 55.8657 43.5798ZM33.0404 38.579L44.7227 35.879C45.9935 35.5288 46.3344 36.5711 46.4193 36.9392L48.5611 46.2062C44.4288 47.7448 39.474 49.3084 34.3015 50.318C34.301 50.3165 34.3005 50.3139 34.2999 50.3124L31.9803 40.2761C31.8954 39.9075 31.8698 38.9424 33.0404 38.579ZM2.03851 55.8453C1.80695 54.7079 2.11876 53.5614 2.89471 52.6995C3.7775 51.7186 5.12188 51.2964 6.4044 51.599C9.83997 52.4092 16.8404 53.7178 25.1178 53.3779C25.6591 53.3554 26.0803 52.8984 26.0578 52.3571C26.0359 51.8152 25.5768 51.394 25.037 51.4165C19.7403 51.6343 14.9834 51.1573 11.3985 50.5813C13.4304 48.5575 16.112 45.5048 17.6317 41.121C19.4934 41.6067 24.9174 42.3535 30.2857 41.6593L32.3672 50.6666C32.1847 50.6968 29.9519 51.0244 29.0093 51.1251C28.4701 51.1824 28.08 51.666 28.1373 52.2052C28.195 52.744 28.6786 53.1351 29.2174 53.0768C30.1917 52.973 39.4914 52.7159 54.2095 46.0651C56.3303 45.1066 58.7885 45.191 60.8271 46.3053C64.7994 48.4768 65.5447 52.2027 64.9676 54.2847C61.4717 51.807 55.6515 51.3255 49.9489 55.0729C40.0025 61.6087 26.4468 62.6116 26.3114 62.6208L26.3119 62.6254C14.5264 62.1286 7.75594 60.1125 4.04127 58.3848C2.99899 57.9002 2.26955 56.9744 2.03851 55.8453ZM58.6296 60.8793C52.8247 61.9144 45.585 62.5217 37.0597 62.6914C41.4435 61.5249 46.5373 59.6632 51.0269 56.7127C53.5884 55.0294 56.3503 54.2044 59.0145 54.3266C61.1517 54.4247 63.0353 55.1312 64.393 56.3278C63.3017 59.107 60.7305 60.5046 58.6296 60.8793Z" fill="black"/>
<path d="M36.5174 47.3404C36.6227 47.7944 36.9785 48.2002 37.6947 48.076L44.7069 46.4551C45.4465 46.2833 45.5007 45.5314 45.4425 45.2779L44.2018 39.9111C44.0802 39.3826 43.5521 39.0544 43.0246 39.1755L36.0124 40.7965C35.2727 41.0214 35.2186 41.7201 35.2773 41.9737L36.5174 47.3404ZM42.5104 41.3092L43.3088 44.7636L38.2089 45.9424L37.4104 42.4879L42.5104 41.3092Z" fill="black"/>
</g>
<defs>
<clipPath id="clip0">
<rect width="67" height="67" fill="white"/>
</clipPath>
</defs>
</svg>
