<svg width="59" height="59" viewBox="0 0 59 59" fill="none" xmlns="http://www.w3.org/2000/svg">
<ellipse cx="29.8435" cy="29.5208" rx="28.8901" ry="29.2076" fill="#EEEEEE"/>
<g clip-path="url(#clip0)">
<path d="M29.8441 55.1275C43.9864 55.1275 55.451 43.6629 55.451 29.5205C55.451 15.3782 43.9864 3.91363 29.8441 3.91363C15.7018 3.91363 4.23718 15.3782 4.23718 29.5205C4.23718 43.6629 15.7018 55.1275 29.8441 55.1275Z" fill="#55ACEE"/>
<path d="M45.5288 22.3166C44.4314 22.8032 43.251 23.1323 42.013 23.2793C43.277 22.522 44.247 21.3238 44.7048 19.8936C43.5221 20.5952 42.2116 21.1042 40.818 21.3785C39.7015 20.1894 38.1107 19.4463 36.3492 19.4463C32.9695 19.4463 30.2284 22.1874 30.2284 25.5671C30.2284 26.0468 30.2827 26.5138 30.3877 26.962C25.3008 26.7069 20.7905 24.2703 17.7714 20.566C17.2447 21.4698 16.9425 22.522 16.9425 23.6435C16.9425 25.7666 18.0238 27.6408 19.6653 28.7382C18.6624 28.7067 17.718 28.4314 16.8932 27.9717C16.8927 27.9978 16.8927 28.0238 16.8927 28.0493C16.8927 31.015 19.0034 33.4886 21.8029 34.0505C21.2899 34.1911 20.748 34.2655 20.1907 34.2655C19.7954 34.2655 19.4124 34.2276 19.039 34.1564C19.8178 36.5876 22.0777 38.3573 24.7567 38.4071C22.6616 40.049 20.0227 41.0272 17.1543 41.0272C16.6613 41.0272 16.1729 40.9984 15.6949 40.9414C18.4023 42.6787 21.6203 43.6916 25.0767 43.6916C36.335 43.6916 42.4919 34.365 42.4919 26.276C42.4919 26.0108 42.4859 25.7465 42.4741 25.4845C43.6709 24.6217 44.7085 23.544 45.5288 22.3166Z" fill="#F1F2F2"/>
</g>
<defs>
<clipPath id="clip0">
<rect x="4.23621" y="3.91363" width="51.2143" height="51.2143" fill="white"/>
</clipPath>
</defs>
</svg>
